<svg width="31" height="30" viewBox="0 0 31 30" fill="none" xmlns="http://www.w3.org/2000/svg">
<path d="M15.5 19.6875C12.9125 19.6875 10.8125 17.5875 10.8125 15C10.8125 12.4125 12.9125 10.3125 15.5 10.3125C18.0875 10.3125 20.1875 12.4125 20.1875 15C20.1875 17.5875 18.0875 19.6875 15.5 19.6875ZM15.5 12.1875C13.95 12.1875 12.6875 13.45 12.6875 15C12.6875 16.55 13.95 17.8125 15.5 17.8125C17.05 17.8125 18.3125 16.55 18.3125 15C18.3125 13.45 17.05 12.1875 15.5 12.1875Z" fill="#111111"/>
<path d="M19.5125 27.7374C19.25 27.7374 18.9875 27.6999 18.725 27.6374C17.95 27.4249 17.3 26.9374 16.8875 26.2499L16.7375 25.9999C16 24.7249 14.9875 24.7249 14.25 25.9999L14.1125 26.2374C13.7 26.9374 13.05 27.4374 12.275 27.6374C11.4875 27.8499 10.675 27.7374 9.9875 27.3249L7.8375 26.0874C7.075 25.6499 6.525 24.9374 6.2875 24.0749C6.0625 23.2124 6.175 22.3249 6.6125 21.5624C6.975 20.9249 7.075 20.3499 6.8625 19.9874C6.65 19.6249 6.1125 19.4124 5.375 19.4124C3.55 19.4124 2.0625 17.9249 2.0625 16.0999V13.8999C2.0625 12.0749 3.55 10.5874 5.375 10.5874C6.1125 10.5874 6.65 10.3749 6.8625 10.0124C7.075 9.64987 6.9875 9.07487 6.6125 8.43737C6.175 7.67487 6.0625 6.77487 6.2875 5.92487C6.5125 5.06237 7.0625 4.34987 7.8375 3.91237L10 2.67487C11.4125 1.83737 13.275 2.32487 14.125 3.76237L14.275 4.01237C15.0125 5.28737 16.025 5.28737 16.7625 4.01237L16.9 3.77487C17.75 2.32487 19.6125 1.83737 21.0375 2.68737L23.1875 3.92487C23.95 4.36237 24.5 5.07487 24.7375 5.93737C24.9625 6.79987 24.85 7.68737 24.4125 8.44987C24.05 9.08737 23.95 9.66237 24.1625 10.0249C24.375 10.3874 24.9125 10.5999 25.65 10.5999C27.475 10.5999 28.9625 12.0874 28.9625 13.9124V16.1124C28.9625 17.9374 27.475 19.4249 25.65 19.4249C24.9125 19.4249 24.375 19.6374 24.1625 19.9999C23.95 20.3624 24.0375 20.9374 24.4125 21.5749C24.85 22.3374 24.975 23.2374 24.7375 24.0874C24.5125 24.9499 23.9625 25.6624 23.1875 26.0999L21.025 27.3374C20.55 27.5999 20.0375 27.7374 19.5125 27.7374ZM15.5 23.1124C16.6125 23.1124 17.65 23.8124 18.3625 25.0499L18.5 25.2874C18.65 25.5499 18.9 25.7374 19.2 25.8124C19.5 25.8874 19.8 25.8499 20.05 25.6999L22.2125 24.4499C22.5375 24.2624 22.7875 23.9499 22.8875 23.5749C22.9875 23.1999 22.9375 22.8124 22.75 22.4874C22.0375 21.2624 21.95 19.9999 22.5 19.0374C23.05 18.0749 24.1875 17.5249 25.6125 17.5249C26.4125 17.5249 27.05 16.8874 27.05 16.0874V13.8874C27.05 13.0999 26.4125 12.4499 25.6125 12.4499C24.1875 12.4499 23.05 11.8999 22.5 10.9374C21.95 9.97487 22.0375 8.71237 22.75 7.48737C22.9375 7.16237 22.9875 6.77487 22.8875 6.39987C22.7875 6.02487 22.55 5.72487 22.225 5.52487L20.0625 4.28737C19.525 3.96237 18.8125 4.14987 18.4875 4.69987L18.35 4.93737C17.6375 6.17487 16.6 6.87487 15.4875 6.87487C14.375 6.87487 13.3375 6.17487 12.625 4.93737L12.4875 4.68737C12.175 4.16237 11.475 3.97487 10.9375 4.28737L8.775 5.53737C8.45 5.72487 8.2 6.03737 8.1 6.41237C8 6.78737 8.05 7.17487 8.2375 7.49987C8.95 8.72487 9.0375 9.98737 8.4875 10.9499C7.9375 11.9124 6.8 12.4624 5.375 12.4624C4.575 12.4624 3.9375 13.0999 3.9375 13.8999V16.0999C3.9375 16.8874 4.575 17.5374 5.375 17.5374C6.8 17.5374 7.9375 18.0874 8.4875 19.0499C9.0375 20.0124 8.95 21.2749 8.2375 22.4999C8.05 22.8249 8 23.2124 8.1 23.5874C8.2 23.9624 8.4375 24.2624 8.7625 24.4624L10.925 25.6999C11.1875 25.8624 11.5 25.8999 11.7875 25.8249C12.0875 25.7499 12.3375 25.5499 12.5 25.2874L12.6375 25.0499C13.35 23.8249 14.3875 23.1124 15.5 23.1124Z" fill="#111111"/>
</svg>
