<svg width="23" height="24" viewBox="0 0 23 24" fill="none" xmlns="http://www.w3.org/2000/svg">
<path d="M11.525 23.6629C8.61252 23.6629 5.70002 23.2004 2.93752 22.2754C1.88752 21.9129 1.08752 21.1754 0.73752 20.2129C0.37502 19.2504 0.500019 18.1879 1.07502 17.2379L2.51252 14.8504C2.81252 14.3504 3.08752 13.3504 3.08752 12.7629V9.15039C3.08752 4.50039 6.87502 0.712891 11.525 0.712891C16.175 0.712891 19.9625 4.50039 19.9625 9.15039V12.7629C19.9625 13.3379 20.2375 14.3504 20.5375 14.8629L21.9625 17.2379C22.5 18.1379 22.6 19.2254 22.2375 20.2129C21.875 21.2004 21.0875 21.9504 20.1 22.2754C17.35 23.2004 14.4375 23.6629 11.525 23.6629ZM11.525 2.58789C7.91252 2.58789 4.96252 5.52539 4.96252 9.15039V12.7629C4.96252 13.6754 4.58752 15.0254 4.12502 15.8129L2.68752 18.2004C2.41252 18.6629 2.33752 19.1504 2.50002 19.5629C2.65002 19.9879 3.02502 20.3129 3.53752 20.4879C8.76252 22.2379 14.3 22.2379 19.525 20.4879C19.975 20.3379 20.325 20.0004 20.4875 19.5504C20.65 19.1004 20.6125 18.6129 20.3625 18.2004L18.925 15.8129C18.45 15.0004 18.0875 13.6629 18.0875 12.7504V9.15039C18.0875 5.52539 15.15 2.58789 11.525 2.58789Z" fill="#111111"/>
</svg>
