<svg width="36" height="35" viewBox="0 0 36 35" fill="none" xmlns="http://www.w3.org/2000/svg">
<path d="M31.125 11.3022H4.875C4.27708 11.3022 3.78125 10.8063 3.78125 10.2084C3.78125 9.61049 4.27708 9.11465 4.875 9.11465H31.125C31.7229 9.11465 32.2188 9.61049 32.2188 10.2084C32.2188 10.8063 31.7229 11.3022 31.125 11.3022Z" fill="white"/>
<path d="M31.125 18.5938H4.875C4.27708 18.5938 3.78125 18.0979 3.78125 17.5C3.78125 16.9021 4.27708 16.4062 4.875 16.4062H31.125C31.7229 16.4062 32.2188 16.9021 32.2188 17.5C32.2188 18.0979 31.7229 18.5938 31.125 18.5938Z" fill="white"/>
<path d="M31.125 25.8853H4.875C4.27708 25.8853 3.78125 25.3895 3.78125 24.7916C3.78125 24.1937 4.27708 23.6978 4.875 23.6978H31.125C31.7229 23.6978 32.2188 24.1937 32.2188 24.7916C32.2188 25.3895 31.7229 25.8853 31.125 25.8853Z" fill="white"/>
</svg>
