<svg width="31" height="30" viewBox="0 0 31 30" fill="none" xmlns="http://www.w3.org/2000/svg">
<path d="M10.5 27.8997C10.15 27.8997 9.78748 27.8123 9.46248 27.6373C8.74998 27.2623 8.3125 26.5122 8.3125 25.7122V23.9373C4.5375 23.5498 2.0625 20.7747 2.0625 16.7997V9.2998C2.0625 4.9998 4.95 2.1123 9.25 2.1123H21.75C26.05 2.1123 28.9375 4.9998 28.9375 9.2998V16.7997C28.9375 21.0997 26.05 23.9872 21.75 23.9872H17.0375L11.7125 27.5373C11.35 27.7748 10.925 27.8997 10.5 27.8997ZM9.25 3.97479C6.025 3.97479 3.9375 6.06229 3.9375 9.28729V16.7874C3.9375 20.0124 6.025 22.0999 9.25 22.0999C9.7625 22.0999 10.1875 22.5249 10.1875 23.0374V25.6999C10.1875 25.8624 10.2875 25.9373 10.35 25.9748C10.4125 26.0123 10.5375 26.0498 10.675 25.9623L16.2375 22.2624C16.3875 22.1624 16.575 22.0999 16.7625 22.0999H21.7625C24.9875 22.0999 27.075 20.0124 27.075 16.7874V9.28729C27.075 6.06229 24.9875 3.97479 21.7625 3.97479H9.25Z" fill="white"/>
<path d="M15.5007 15.1377C14.9882 15.1377 14.5632 14.7127 14.5632 14.2002V13.9377C14.5632 12.4877 15.6257 11.7752 16.0257 11.5002C16.4882 11.1877 16.6382 10.9752 16.6382 10.6502C16.6382 10.0252 16.1257 9.5127 15.5007 9.5127C14.8757 9.5127 14.3633 10.0252 14.3633 10.6502C14.3633 11.1627 13.9383 11.5877 13.4258 11.5877C12.9133 11.5877 12.4883 11.1627 12.4883 10.6502C12.4883 8.98774 13.8382 7.6377 15.5007 7.6377C17.1632 7.6377 18.5132 8.98774 18.5132 10.6502C18.5132 12.0752 17.4633 12.7877 17.0758 13.0502C16.5883 13.3752 16.4382 13.5877 16.4382 13.9377V14.2002C16.4382 14.7252 16.0132 15.1377 15.5007 15.1377Z" fill="white"/>
<path d="M15.5 18.25C14.975 18.25 14.5625 17.825 14.5625 17.3125C14.5625 16.8 14.9875 16.375 15.5 16.375C16.0125 16.375 16.4375 16.8 16.4375 17.3125C16.4375 17.825 16.025 18.25 15.5 18.25Z" fill="white"/>
</svg>
