<svg width="31" height="30" viewBox="0 0 31 30" fill="none" xmlns="http://www.w3.org/2000/svg">
<path d="M22.8371 27.3377C22.4496 27.3377 22.0621 27.2377 21.7121 27.0252L16.6996 24.0502C16.1746 24.0377 15.6496 24.0002 15.1496 23.9252C14.8121 23.8752 14.5246 23.6502 14.3996 23.3251C14.2746 23.0001 14.3371 22.6502 14.5621 22.3876C15.3871 21.4251 15.8121 20.2752 15.8121 19.0502C15.8121 16.0252 13.1496 13.5627 9.87461 13.5627C8.64961 13.5627 7.4746 13.9002 6.4871 14.5502C6.2121 14.7252 5.8746 14.7502 5.5746 14.6127C5.2871 14.4752 5.07461 14.2002 5.03711 13.8752C4.99961 13.5252 4.97461 13.1752 4.97461 12.8127C4.97461 6.61268 10.3496 1.5752 16.9496 1.5752C23.5496 1.5752 28.9246 6.61268 28.9246 12.8127C28.9246 16.2127 27.3496 19.3377 24.5746 21.4752L24.9996 24.8752C25.0996 25.7252 24.7246 26.5252 24.0121 26.9877C23.6621 27.2127 23.2496 27.3377 22.8371 27.3377ZM16.9371 22.1627C17.1121 22.1502 17.2871 22.2002 17.4371 22.3002L22.6746 25.4127C22.8121 25.5002 22.9246 25.4627 22.9996 25.4127C23.0621 25.3752 23.1621 25.2752 23.1371 25.1002L22.6496 21.1502C22.6121 20.8002 22.7621 20.4627 23.0371 20.2627C25.5871 18.4752 27.0496 15.7502 27.0496 12.7877C27.0496 7.62516 22.5246 3.42517 16.9496 3.42517C11.5871 3.42517 7.1871 7.32522 6.8621 12.2252C7.7996 11.8627 8.81211 11.6627 9.86211 11.6627C14.1746 11.6627 17.6746 14.9626 17.6746 19.0251C17.6871 20.1251 17.4246 21.1877 16.9371 22.1627Z" fill="#111111"/>
<path d="M6.22423 28.4378C5.89923 28.4378 5.58672 28.3503 5.29922 28.1628C4.73672 27.8003 4.43673 27.1753 4.51173 26.5128L4.76173 24.5877C3.07423 23.2127 2.07422 21.1752 2.07422 19.0377C2.07422 16.6002 3.34923 14.3253 5.48673 12.9628C6.77423 12.1253 8.29922 11.6753 9.88672 11.6753C14.1992 11.6753 17.6992 14.9752 17.6992 19.0377C17.6992 20.6877 17.0992 22.3128 15.9992 23.6003C14.5867 25.3128 12.4742 26.3127 10.1492 26.3877L7.09922 28.2003C6.82422 28.3628 6.52423 28.4378 6.22423 28.4378ZM9.87423 13.5503C8.64923 13.5503 7.47422 13.8878 6.48672 14.5378C4.88672 15.5628 3.93673 17.2377 3.93673 19.0377C3.93673 20.7752 4.78673 22.3628 6.28673 23.3878C6.57423 23.5878 6.72422 23.9252 6.68672 24.2752L6.41172 26.4128L9.39922 24.6378C9.54922 24.5503 9.71173 24.5002 9.87423 24.5002C11.7117 24.5002 13.4492 23.7128 14.5492 22.3753C15.3742 21.4003 15.8117 20.2502 15.8117 19.0252C15.8117 16.0127 13.1492 13.5503 9.87423 13.5503Z" fill="#111111"/>
</svg>
