<svg width="31" height="30" viewBox="0 0 31 30" fill="none" xmlns="http://www.w3.org/2000/svg">
<path d="M15.5248 25.6624C12.6123 25.6624 9.69984 25.1999 6.93734 24.2749C5.88734 23.9124 5.08734 23.1749 4.73734 22.2124C4.37484 21.2499 4.49984 20.1874 5.07484 19.2374L6.51234 16.8499C6.81234 16.3499 7.08734 15.3499 7.08734 14.7624V11.1499C7.08734 6.4999 10.8748 2.7124 15.5248 2.7124C20.1748 2.7124 23.9623 6.4999 23.9623 11.1499V14.7624C23.9623 15.3374 24.2373 16.3499 24.5373 16.8624L25.9623 19.2374C26.4998 20.1374 26.5998 21.2249 26.2373 22.2124C25.8748 23.1999 25.0873 23.9499 24.0998 24.2749C21.3498 25.1999 18.4373 25.6624 15.5248 25.6624ZM15.5248 4.5874C11.9123 4.5874 8.96234 7.5249 8.96234 11.1499V14.7624C8.96234 15.6749 8.58734 17.0249 8.12484 17.8124L6.68734 20.1999C6.41234 20.6624 6.33734 21.1499 6.49984 21.5624C6.64984 21.9874 7.02484 22.3124 7.53734 22.4874C12.7623 24.2374 18.2998 24.2374 23.5248 22.4874C23.9748 22.3374 24.3248 21.9999 24.4873 21.5499C24.6498 21.0999 24.6123 20.6124 24.3623 20.1999L22.9248 17.8124C22.4498 16.9999 22.0873 15.6624 22.0873 14.7499V11.1499C22.0873 7.5249 19.1498 4.5874 15.5248 4.5874Z" fill="white"/>
<path d="M17.8498 4.9251C17.7623 4.9251 17.6748 4.9126 17.5873 4.8876C17.2248 4.7876 16.8748 4.7126 16.5373 4.6626C15.4748 4.5251 14.4498 4.6001 13.4873 4.8876C13.1373 5.0001 12.7623 4.8876 12.5248 4.6251C12.2873 4.3626 12.2123 3.9876 12.3498 3.6501C12.8623 2.3376 14.1123 1.4751 15.5373 1.4751C16.9623 1.4751 18.2123 2.3251 18.7248 3.6501C18.8498 3.9876 18.7873 4.3626 18.5498 4.6251C18.3623 4.8251 18.0998 4.9251 17.8498 4.9251Z" fill="white"/>
<path d="M15.5254 28.5127C14.2879 28.5127 13.0879 28.0127 12.2129 27.1377C11.3379 26.2627 10.8379 25.0627 10.8379 23.8252H12.7129C12.7129 24.5627 13.0129 25.2877 13.5379 25.8127C14.0629 26.3377 14.7879 26.6377 15.5254 26.6377C17.0754 26.6377 18.3379 25.3752 18.3379 23.8252H20.2129C20.2129 26.4127 18.1129 28.5127 15.5254 28.5127Z" fill="white"/>
</svg>
